REM DIRINDEX 1\2,1\3
REM DIRNAME folder01,folder02,folder03
TITLE ""
FILE "Disc1Track01.mp3" MP3
  TRACK 01 AUDIO
    TITLE "0:"
    INDEX 01 00:00:00
  TRACK 02 AUDIO
    TITLE "3:cjc116_0001"
    INDEX 01 00:00:23
  TRACK 03 AUDIO
    TITLE "0:"
    INDEX 01 00:06:69
  TRACK 04 AUDIO
    TITLE "3:cjc116_0002"
    INDEX 01 00:07:47
  TRACK 05 AUDIO
    TITLE "0:"
    INDEX 01 00:09:12
  TRACK 06 AUDIO
    TITLE "2:cjc116_0003"
    INDEX 01 00:09:55
  TRACK 07 AUDIO
    TITLE "0:"
    INDEX 01 00:10:61
  TRACK 08 AUDIO
    TITLE "2:cjc116_0004"
    INDEX 01 00:11:11
  TRACK 09 AUDIO
    TITLE "0:"
    INDEX 01 00:12:40
  TRACK 10 AUDIO
    TITLE "2:cjc116_0005"
    INDEX 01 00:12:71
  TRACK 11 AUDIO
    TITLE "0:"
    INDEX 01 00:14:37
  TRACK 12 AUDIO
    TITLE "2:cjc116_0006"
    INDEX 01 00:15:01
  TRACK 13 AUDIO
    TITLE "0:"
    INDEX 01 00:16:12
  TRACK 14 AUDIO
    TITLE "2:cjc116_0007"
    INDEX 01 00:16:26
  TRACK 15 AUDIO
    TITLE "0:"
    INDEX 01 00:17:72
  TRACK 16 AUDIO
    TITLE "2:cjc116_0008"
    INDEX 01 00:18:23
  TRACK 17 AUDIO
    TITLE "0:"
    INDEX 01 00:19:67
  TRACK 18 AUDIO
    TITLE "2:cjc116_0009"
    INDEX 01 00:20:20
  TRACK 19 AUDIO
    TITLE "0:"
    INDEX 01 00:21:25
  TRACK 20 AUDIO
    TITLE "2:cjc116_0010"
    INDEX 01 00:21:39
  TRACK 21 AUDIO
    TITLE "0:"
    INDEX 01 00:24:04
  TRACK 22 AUDIO
    TITLE "2:cjc116_0011"
    INDEX 01 00:24:29
  TRACK 23 AUDIO
    TITLE "0:"
    INDEX 01 00:26:58
  TRACK 24 AUDIO
    TITLE "2:cjc116_0012"
    INDEX 01 00:27:12
  TRACK 25 AUDIO
    TITLE "0:"
    INDEX 01 00:28:27
  TRACK 26 AUDIO
    TITLE "2:cjc116_0013"
    INDEX 01 00:28:41
  TRACK 27 AUDIO
    TITLE "0:"
    INDEX 01 00:30:22
  TRACK 28 AUDIO
    TITLE "2:cjc116_0014"
    INDEX 01 00:30:48
  TRACK 29 AUDIO
    TITLE "0:"
    INDEX 01 00:32:52
  TRACK 30 AUDIO
    TITLE "2:cjc116_0015"
    INDEX 01 00:33:05
  TRACK 31 AUDIO
    TITLE "0:"
    INDEX 01 00:34:04
  TRACK 32 AUDIO
    TITLE "2:cjc116_0016"
    INDEX 01 00:34:16
  TRACK 33 AUDIO
    TITLE "0:"
    INDEX 01 00:35:72
  TRACK 34 AUDIO
    TITLE "2:cjc116_0017"
    INDEX 01 00:36:23
  TRACK 35 AUDIO
    TITLE "0:"
    INDEX 01 00:38:47
  TRACK 36 AUDIO
    TITLE "2:cjc116_0018"
    INDEX 01 00:39:00
  TRACK 37 AUDIO
    TITLE "0:"
    INDEX 01 00:39:72
  TRACK 38 AUDIO
    TITLE "2:cjc116_0019"
    INDEX 01 00:40:11
  TRACK 39 AUDIO
    TITLE "0:"
    INDEX 01 00:41:51
  TRACK 40 AUDIO
    TITLE "2:cjc116_0020"
    INDEX 01 00:42:04
  TRACK 41 AUDIO
    TITLE "0:"
    INDEX 01 00:43:58
  TRACK 42 AUDIO
    TITLE "2:cjc116_0021"
    INDEX 01 00:44:16
  TRACK 43 AUDIO
    TITLE "0:"
    INDEX 01 00:45:18
  TRACK 44 AUDIO
    TITLE "2:cjc116_0022"
    INDEX 01 00:45:26
  TRACK 45 AUDIO
    TITLE "0:"
    INDEX 01 00:47:19
  TRACK 46 AUDIO
    TITLE "2:cjc116_0023"
    INDEX 01 00:47:46
  TRACK 47 AUDIO
    TITLE "0:"
    INDEX 01 00:49:16
  TRACK 48 AUDIO
    TITLE "2:cjc116_0024"
    INDEX 01 00:49:53
  TRACK 49 AUDIO
    TITLE "0:"
    INDEX 01 00:50:58
  TRACK 50 AUDIO
    TITLE "2:cjc116_0025"
    INDEX 01 00:50:64
  TRACK 51 AUDIO
    TITLE "0:"
    INDEX 01 00:52:18
  TRACK 52 AUDIO
    TITLE "2:cjc116_0026"
    INDEX 01 00:52:51
  TRACK 53 AUDIO
    TITLE "0:"
    INDEX 01 00:54:64
  TRACK 54 AUDIO
    TITLE "2:cjc116_0027"
    INDEX 01 00:55:20
  TRACK 55 AUDIO
    TITLE "0:"
    INDEX 01 00:56:22
  TRACK 56 AUDIO
    TITLE "2:cjc116_0028"
    INDEX 01 00:56:49
  TRACK 57 AUDIO
    TITLE "0:"
    INDEX 01 00:57:56
  TRACK 58 AUDIO
    TITLE "2:cjc116_0029"
    INDEX 01 00:58:18
  TRACK 59 AUDIO
    TITLE "0:"
    INDEX 01 00:59:18
  TRACK 60 AUDIO
    TITLE "2:cjc116_0030"
    INDEX 01 00:59:38
  TRACK 61 AUDIO
    TITLE "0:"
    INDEX 01 01:00:68
  TRACK 62 AUDIO
    TITLE "2:cjc116_0031"
    INDEX 01 01:01:23
  TRACK 63 AUDIO
    TITLE "0:"
    INDEX 01 01:02:67
  TRACK 64 AUDIO
    TITLE "2:cjc116_0032"
    INDEX 01 01:03:29
  TRACK 65 AUDIO
    TITLE "0:"
    INDEX 01 01:04:43
  TRACK 66 AUDIO
    TITLE "2:cjc116_0033"
    INDEX 01 01:04:58
  TRACK 67 AUDIO
    TITLE "0:"
    INDEX 01 01:06:63
  TRACK 68 AUDIO
    TITLE "2:cjc116_0034"
    INDEX 01 01:07:17
  TRACK 69 AUDIO
    TITLE "0:"
    INDEX 01 01:09:12
  TRACK 70 AUDIO
    TITLE "2:cjc116_0035"
    INDEX 01 01:09:50
  TRACK 71 AUDIO
    TITLE "0:"
    INDEX 01 01:10:61
  TRACK 72 AUDIO
    TITLE "2:cjc116_0036"
    INDEX 01 01:11:07
  TRACK 73 AUDIO
    TITLE "0:"
    INDEX 01 01:12:64
  TRACK 74 AUDIO
    TITLE "2:cjc116_0037"
    INDEX 01 01:13:40
  TRACK 75 AUDIO
    TITLE "0:"
    INDEX 01 01:15:15
  TRACK 76 AUDIO
    TITLE "2:cjc116_0038"
    INDEX 01 01:15:50
  TRACK 77 AUDIO
    TITLE "0:"
    INDEX 01 01:16:65
  TRACK 78 AUDIO
    TITLE "2:cjc116_0039"
    INDEX 01 01:17:04
  TRACK 79 AUDIO
    TITLE "0:"
    INDEX 01 01:18:54
  TRACK 80 AUDIO
    TITLE "2:cjc116_0040"
    INDEX 01 01:19:19
  TRACK 81 AUDIO
    TITLE "0:"
    INDEX 01 01:21:29
  TRACK 82 AUDIO
    TITLE "2:cjc116_0041"
    INDEX 01 01:21:61
  TRACK 83 AUDIO
    TITLE "0:"
    INDEX 01 01:22:60
  TRACK 84 AUDIO
    TITLE "2:cjc116_0042"
    INDEX 01 01:23:11
  TRACK 85 AUDIO
    TITLE "0:"
    INDEX 01 01:25:72
  TRACK 86 AUDIO
    TITLE "2:cjc116_0043"
    INDEX 01 01:26:40
  TRACK 87 AUDIO
    TITLE "0:"
    INDEX 01 01:28:74
  TRACK 88 AUDIO
    TITLE "2:cjc116_0044"
    INDEX 01 01:29:46
  TRACK 89 AUDIO
    TITLE "0:"
    INDEX 01 01:30:40
  TRACK 90 AUDIO
    TITLE "2:cjc116_0045"
    INDEX 01 01:30:64
  TRACK 91 AUDIO
    TITLE "0:"
    INDEX 01 01:32:27
  TRACK 92 AUDIO
    TITLE "2:cjc116_0046"
    INDEX 01 01:32:70
  TRACK 93 AUDIO
    TITLE "0:"
    INDEX 01 01:34:28
  TRACK 94 AUDIO
    TITLE "2:cjc116_0047"
    INDEX 01 01:34:65
  TRACK 95 AUDIO
    TITLE "0:"
    INDEX 01 01:35:69
  TRACK 96 AUDIO
    TITLE "2:cjc116_0048"
    INDEX 01 01:36:07
  TRACK 97 AUDIO
    TITLE "0:"
    INDEX 01 01:37:64
  TRACK 98 AUDIO
    TITLE "2:cjc116_0049"
    INDEX 01 01:38:14
  TRACK 99 AUDIO
    TITLE "0:"
    INDEX 01 01:40:05
  TRACK 100 AUDIO
    TITLE "2:cjc116_0050"
    INDEX 01 01:40:44
  TRACK 101 AUDIO
    TITLE "0:"
    INDEX 01 01:41:48
  TRACK 102 AUDIO
    TITLE "2:cjc116_0051"
    INDEX 01 01:41:65
  TRACK 103 AUDIO
    TITLE "0:"
    INDEX 01 01:43:31
  TRACK 104 AUDIO
    TITLE "2:cjc116_0052"
    INDEX 01 01:43:56
  TRACK 105 AUDIO
    TITLE "0:"
    INDEX 01 01:45:10
  TRACK 106 AUDIO
    TITLE "2:cjc116_0053"
    INDEX 01 01:45:45
  TRACK 107 AUDIO
    TITLE "0:"
    INDEX 01 01:46:43
  TRACK 108 AUDIO
    TITLE "2:cjc116_0054"
    INDEX 01 01:46:57
  TRACK 109 AUDIO
    TITLE "0:"
    INDEX 01 01:48:03
  TRACK 110 AUDIO
    TITLE "2:cjc116_0055"
    INDEX 01 01:48:28
  TRACK 111 AUDIO
    TITLE "0:"
    INDEX 01 01:49:73
  TRACK 112 AUDIO
    TITLE "2:cjc116_0056"
    INDEX 01 01:50:31
  TRACK 113 AUDIO
    TITLE "0:"
    INDEX 01 01:51:42
  TRACK 114 AUDIO
    TITLE "2:cjc116_0057"
    INDEX 01 01:51:58
  TRACK 115 AUDIO
    TITLE "0:"
    INDEX 01 01:53:51
  TRACK 116 AUDIO
    TITLE "2:cjc116_0058"
    INDEX 01 01:54:05
  TRACK 117 AUDIO
    TITLE "0:"
    INDEX 01 01:55:52
  TRACK 118 AUDIO
    TITLE "2:cjc116_0059"
    INDEX 01 01:56:14
  TRACK 119 AUDIO
    TITLE "0:"
    INDEX 01 01:57:21
  TRACK 120 AUDIO
    TITLE "2:cjc116_0060"
    INDEX 01 01:57:35
  TRACK 121 AUDIO
    TITLE "0:"
    INDEX 01 01:58:64
  TRACK 122 AUDIO
    TITLE "2:cjc116_0061"
    INDEX 01 01:59:18
  TRACK 123 AUDIO
    TITLE "0:"
    INDEX 01 02:00:67
  TRACK 124 AUDIO
    TITLE "2:cjc116_0062"
    INDEX 01 02:01:31
  TRACK 125 AUDIO
    TITLE "0:"
    INDEX 01 02:02:26
  TRACK 126 AUDIO
    TITLE "2:cjc116_0063"
    INDEX 01 02:02:42
  TRACK 127 AUDIO
    TITLE "0:"
    INDEX 01 02:04:43
  TRACK 128 AUDIO
    TITLE "2:cjc116_0064"
    INDEX 01 02:04:68
  TRACK 129 AUDIO
    TITLE "0:"
    INDEX 01 02:07:10
  TRACK 130 AUDIO
    TITLE "2:cjc116_0065"
    INDEX 01 02:07:45
  TRACK 131 AUDIO
    TITLE "0:"
    INDEX 01 02:08:47
  TRACK 132 AUDIO
    TITLE "2:cjc116_0066"
    INDEX 01 02:08:60
  TRACK 133 AUDIO
    TITLE "0:"
    INDEX 01 02:10:36
  TRACK 134 AUDIO
    TITLE "2:cjc116_0067"
    INDEX 01 02:10:63
  TRACK 135 AUDIO
    TITLE "0:"
    INDEX 01 02:12:38
  TRACK 136 AUDIO
    TITLE "2:cjc116_0068"
    INDEX 01 02:13:01
  TRACK 137 AUDIO
    TITLE "0:"
    INDEX 01 02:14:04
  TRACK 138 AUDIO
    TITLE "2:cjc116_0069"
    INDEX 01 02:14:26
  TRACK 139 AUDIO
    TITLE "0:"
    INDEX 01 02:15:58
  TRACK 140 AUDIO
    TITLE "2:cjc116_0070"
    INDEX 01 02:16:11
  TRACK 141 AUDIO
    TITLE "0:"
    INDEX 01 02:17:57
  TRACK 142 AUDIO
    TITLE "2:cjc116_0071"
    INDEX 01 02:18:18
  TRACK 143 AUDIO
    TITLE "0:"
    INDEX 01 02:19:25
  TRACK 144 AUDIO
    TITLE "2:cjc116_0072"
    INDEX 01 02:19:37
  TRACK 145 AUDIO
    TITLE "0:"
    INDEX 01 02:22:06
  TRACK 146 AUDIO
    TITLE "2:cjc116_0073"
    INDEX 01 02:22:35
  TRACK 147 AUDIO
    TITLE "0:"
    INDEX 01 02:24:40
  TRACK 148 AUDIO
    TITLE "2:cjc116_0074"
    INDEX 01 02:25:02
  TRACK 149 AUDIO
    TITLE "0:"
    INDEX 01 02:26:13
  TRACK 150 AUDIO
    TITLE "2:cjc116_0075"
    INDEX 01 02:26:23
  TRACK 151 AUDIO
    TITLE "0:"
    INDEX 01 02:28:12
  TRACK 152 AUDIO
    TITLE "2:cjc116_0076"
    INDEX 01 02:28:41
  TRACK 153 AUDIO
    TITLE "0:"
    INDEX 01 02:30:07
  TRACK 154 AUDIO
    TITLE "2:cjc116_0077"
    INDEX 01 02:30:42
  TRACK 155 AUDIO
    TITLE "0:"
    INDEX 01 02:31:55
  TRACK 156 AUDIO
    TITLE "2:cjc116_0078"
    INDEX 01 02:32:00
  TRACK 157 AUDIO
    TITLE "0:"
    INDEX 01 02:33:70
  TRACK 158 AUDIO
    TITLE "2:cjc116_0079"
    INDEX 01 02:34:22
  TRACK 159 AUDIO
    TITLE "0:"
    INDEX 01 02:35:73
  TRACK 160 AUDIO
    TITLE "2:cjc116_0080"
    INDEX 01 02:36:39
  TRACK 161 AUDIO
    TITLE "0:"
    INDEX 01 02:37:38
  TRACK 162 AUDIO
    TITLE "2:cjc116_0081"
    INDEX 01 02:37:60
  TRACK 163 AUDIO
    TITLE "0:"
    INDEX 01 02:39:12
  TRACK 164 AUDIO
    TITLE "2:cjc116_0082"
    INDEX 01 02:39:49
  TRACK 165 AUDIO
    TITLE "0:"
    INDEX 01 02:40:66
  TRACK 166 AUDIO
    TITLE "2:cjc116_0083"
    INDEX 01 02:41:30
  TRACK 167 AUDIO
    TITLE "0:"
    INDEX 01 02:42:61
  TRACK 168 AUDIO
    TITLE "2:cjc116_0084"
    INDEX 01 02:43:00
  TRACK 169 AUDIO
    TITLE "0:"
    INDEX 01 02:45:10
  TRACK 170 AUDIO
    TITLE "2:cjc116_0085"
    INDEX 01 02:45:38
  TRACK 171 AUDIO
    TITLE "0:"
    INDEX 01 02:47:66
  TRACK 172 AUDIO
    TITLE "2:cjc116_0086"
    INDEX 01 02:48:28
  TRACK 173 AUDIO
    TITLE "0:"
    INDEX 01 02:49:49
  TRACK 174 AUDIO
    TITLE "2:cjc116_0087"
    INDEX 01 02:49:63
  TRACK 175 AUDIO
    TITLE "0:"
    INDEX 01 02:51:50
  TRACK 176 AUDIO
    TITLE "2:cjc116_0088"
    INDEX 01 02:52:03
  TRACK 177 AUDIO
    TITLE "0:"
    INDEX 01 02:53:47
  TRACK 178 AUDIO
    TITLE "2:cjc116_0089"
    INDEX 01 02:54:09
  TRACK 179 AUDIO
    TITLE "0:"
    INDEX 01 02:55:07
  TRACK 180 AUDIO
    TITLE "2:cjc116_0090"
    INDEX 01 02:55:25
  TRACK 181 AUDIO
    TITLE "0:"
    INDEX 01 02:57:12
  TRACK 182 AUDIO
    TITLE "2:cjc116_0091"
    INDEX 01 02:57:35
  TRACK 183 AUDIO
    TITLE "0:"
    INDEX 01 02:59:28
  TRACK 184 AUDIO
    TITLE "2:cjc116_0092"
    INDEX 01 02:59:67
  TRACK 185 AUDIO
    TITLE "0:"
    INDEX 01 03:01:04
  TRACK 186 AUDIO
    TITLE "2:cjc116_0093"
    INDEX 01 03:01:21
  TRACK 187 AUDIO
    TITLE "0:"
    INDEX 01 03:02:60
  TRACK 188 AUDIO
    TITLE "2:cjc116_0094"
    INDEX 01 03:03:16
  TRACK 189 AUDIO
    TITLE "0:"
    INDEX 01 03:04:71
  TRACK 190 AUDIO
    TITLE "2:cjc116_0095"
    INDEX 01 03:05:35
  TRACK 191 AUDIO
    TITLE "0:"
    INDEX 01 03:06:36
  TRACK 192 AUDIO
    TITLE "2:cjc116_0096"
    INDEX 01 03:06:58
  TRACK 193 AUDIO
    TITLE "0:"
    INDEX 01 03:08:25
  TRACK 194 AUDIO
    TITLE "2:cjc116_0097"
    INDEX 01 03:08:53
  TRACK 195 AUDIO
    TITLE "0:"
    INDEX 01 03:10:28
  TRACK 196 AUDIO
    TITLE "2:cjc116_0098"
    INDEX 01 03:10:67
  TRACK 197 AUDIO
    TITLE "0:"
    INDEX 01 03:11:73
  TRACK 198 AUDIO
    TITLE "2:cjc116_0099"
    INDEX 01 03:12:19
  TRACK 199 AUDIO
    TITLE "0:"
    INDEX 01 03:14:24
  TRACK 200 AUDIO
    TITLE "2:cjc116_0100"
    INDEX 01 03:14:53
  TRACK 201 AUDIO
    TITLE "0:"
    INDEX 01 03:16:27
  TRACK 202 AUDIO
    TITLE "2:cjc116_0101"
    INDEX 01 03:16:58
  TRACK 203 AUDIO
    TITLE "0:"
    INDEX 01 03:17:69
  TRACK 204 AUDIO
    TITLE "2:cjc116_0102"
    INDEX 01 03:18:14
  TRACK 205 AUDIO
    TITLE "0:"
    INDEX 01 03:19:43
  TRACK 206 AUDIO
    TITLE "2:cjc116_0103"
    INDEX 01 03:20:01
  TRACK 207 AUDIO
    TITLE "0:"
    INDEX 01 03:21:44
  TRACK 208 AUDIO
    TITLE "2:cjc116_0104"
    INDEX 01 03:22:10
  TRACK 209 AUDIO
    TITLE "0:"
    INDEX 01 03:23:25
  TRACK 210 AUDIO
    TITLE "2:cjc116_0105"
    INDEX 01 03:23:39
  TRACK 211 AUDIO
    TITLE "0:"
    INDEX 01 03:25:04
  TRACK 212 AUDIO
    TITLE "2:cjc116_0106"
    INDEX 01 03:25:35
  TRACK 213 AUDIO
    TITLE "0:"
    INDEX 01 03:26:60
  TRACK 214 AUDIO
    TITLE "2:cjc116_0107"
    INDEX 01 03:27:21
  TRACK 215 AUDIO
    TITLE "0:"
    INDEX 01 03:28:34
  TRACK 216 AUDIO
    TITLE "2:cjc116_0108"
    INDEX 01 03:28:38
  TRACK 217 AUDIO
    TITLE "0:"
    INDEX 01 03:30:60
  TRACK 218 AUDIO
    TITLE "2:cjc116_0109"
    INDEX 01 03:31:11
  TRACK 219 AUDIO
    TITLE "0:"
    INDEX 01 03:33:17
  TRACK 220 AUDIO
    TITLE "2:cjc116_0110"
    INDEX 01 03:33:53
  TRACK 221 AUDIO
    TITLE "0:"
    INDEX 01 03:34:48
  TRACK 222 AUDIO
    TITLE "2:cjc116_0111"
    INDEX 01 03:34:64
  TRACK 223 AUDIO
    TITLE "0:"
    INDEX 01 03:36:37
  TRACK 224 AUDIO
    TITLE "2:cjc116_0112"
    INDEX 01 03:36:69
  TRACK 225 AUDIO
    TITLE "0:"
    INDEX 01 03:38:40
  TRACK 226 AUDIO
    TITLE "2:cjc116_0113"
    INDEX 01 03:39:04
  TRACK 227 AUDIO
    TITLE "0:"
    INDEX 01 03:39:69
  TRACK 228 AUDIO
    TITLE "2:cjc116_0114"
    INDEX 01 03:40:19
  TRACK 229 AUDIO
    TITLE "0:"
    INDEX 01 03:42:22
  TRACK 230 AUDIO
    TITLE "2:cjc116_0115"
    INDEX 01 03:42:50
  TRACK 231 AUDIO
    TITLE "0:"
    INDEX 01 03:45:03
  TRACK 232 AUDIO
    TITLE "2:cjc116_0116"
    INDEX 01 03:45:46
  TRACK 233 AUDIO
    TITLE "0:"
    INDEX 01 03:46:67
  TRACK 234 AUDIO
    TITLE "2:cjc116_0117"
    INDEX 01 03:47:06
  TRACK 235 AUDIO
    TITLE "0:"
    INDEX 01 03:50:16
  TRACK 236 AUDIO
    TITLE "2:cjc116_0118"
    INDEX 01 03:50:53
  TRACK 237 AUDIO
    TITLE "0:"
    INDEX 01 03:53:44
  TRACK 238 AUDIO
    TITLE "2:cjc116_0119"
    INDEX 01 03:53:73
  TRACK 239 AUDIO
    TITLE "0:"
    INDEX 01 03:55:09
  TRACK 240 AUDIO
    TITLE "2:cjc116_0120"
    INDEX 01 03:55:13
  TRACK 241 AUDIO
    TITLE "0:"
    INDEX 01 03:57:10
  TRACK 242 AUDIO
    TITLE "2:cjc116_0121"
    INDEX 01 03:57:35
  TRACK 243 AUDIO
    TITLE "0:"
    INDEX 01 03:59:28
  TRACK 244 AUDIO
    TITLE "2:cjc116_0122"
    INDEX 01 03:59:56
  TRACK 245 AUDIO
    TITLE "0:"
    INDEX 01 04:00:57
  TRACK 246 AUDIO
    TITLE "2:cjc116_0123"
    INDEX 01 04:00:71
  TRACK 247 AUDIO
    TITLE "0:"
    INDEX 01 04:02:37
  TRACK 248 AUDIO
    TITLE "2:cjc116_0124"
    INDEX 01 04:02:62
  TRACK 249 AUDIO
    TITLE "0:"
    INDEX 01 04:04:22
  TRACK 250 AUDIO
    TITLE "2:cjc116_0125"
    INDEX 01 04:04:53
  TRACK 251 AUDIO
    TITLE "0:"
    INDEX 01 04:05:57
  TRACK 252 AUDIO
    TITLE "2:cjc116_0126"
    INDEX 01 04:06:03
  TRACK 253 AUDIO
    TITLE "0:"
    INDEX 01 04:08:55
  TRACK 254 AUDIO
    TITLE "2:cjc116_0127"
    INDEX 01 04:09:11
  TRACK 255 AUDIO
    TITLE "0:"
    INDEX 01 04:11:61
  TRACK 256 AUDIO
    TITLE "2:cjc116_0128"
    INDEX 01 04:12:23
  TRACK 257 AUDIO
    TITLE "0:"
    INDEX 01 04:13:31
  TRACK 258 AUDIO
    TITLE "2:cjc116_0129"
    INDEX 01 04:13:36
  TRACK 259 AUDIO
    TITLE "0:"
    INDEX 01 04:14:63
  TRACK 260 AUDIO
    TITLE "2:cjc116_0130"
    INDEX 01 04:15:26
  TRACK 261 AUDIO
    TITLE "0:"
    INDEX 01 04:16:56
  TRACK 262 AUDIO
    TITLE "2:cjc116_0131"
    INDEX 01 04:17:11
  TRACK 263 AUDIO
    TITLE "0:"
    INDEX 01 04:18:22
  TRACK 264 AUDIO
    TITLE "2:cjc116_0132"
    INDEX 01 04:18:28
  TRACK 265 AUDIO
    TITLE "0:"
    INDEX 01 04:20:70
  TRACK 266 AUDIO
    TITLE "2:cjc116_0133"
    INDEX 01 04:21:24
  TRACK 267 AUDIO
    TITLE "0:"
    INDEX 01 04:23:25
  TRACK 268 AUDIO
    TITLE "2:cjc116_0134"
    INDEX 01 04:23:56
  TRACK 269 AUDIO
    TITLE "0:"
    INDEX 01 04:24:70
  TRACK 270 AUDIO
    TITLE "2:cjc116_0135"
    INDEX 01 04:25:04
  TRACK 271 AUDIO
    TITLE "0:"
    INDEX 01 04:26:61
  TRACK 272 AUDIO
    TITLE "2:cjc116_0136"
    INDEX 01 04:27:13
  TRACK 273 AUDIO
    TITLE "0:"
    INDEX 01 04:28:52
  TRACK 274 AUDIO
    TITLE "2:cjc116_0137"
    INDEX 01 04:29:06
  TRACK 275 AUDIO
    TITLE "0:"
    INDEX 01 04:30:13
  TRACK 276 AUDIO
    TITLE "2:cjc116_0138"
    INDEX 01 04:30:21
  TRACK 277 AUDIO
    TITLE "0:"
    INDEX 01 04:31:70
  TRACK 278 AUDIO
    TITLE "2:cjc116_0139"
    INDEX 01 04:32:22
  TRACK 279 AUDIO
    TITLE "0:"
    INDEX 01 04:34:19
  TRACK 280 AUDIO
    TITLE "2:cjc116_0140"
    INDEX 01 04:34:48
  TRACK 281 AUDIO
    TITLE "0:"
    INDEX 01 04:35:71
  TRACK 282 AUDIO
    TITLE "2:cjc116_0141"
    INDEX 01 04:36:02
  TRACK 283 AUDIO
    TITLE "0:"
    INDEX 01 04:38:19
  TRACK 284 AUDIO
    TITLE "2:cjc116_0142"
    INDEX 01 04:38:42
  TRACK 285 AUDIO
    TITLE "0:"
    INDEX 01 04:40:55
  TRACK 286 AUDIO
    TITLE "2:cjc116_0143"
    INDEX 01 04:41:19
  TRACK 287 AUDIO
    TITLE "0:"
    INDEX 01 04:42:24
  TRACK 288 AUDIO
    TITLE "2:cjc116_0144"
    INDEX 01 04:42:38
  TRACK 289 AUDIO
    TITLE "0:"
    INDEX 01 04:43:67
  TRACK 290 AUDIO
    TITLE "2:cjc116_0145"
    INDEX 01 04:44:17
  TRACK 291 AUDIO
    TITLE "0:"
    INDEX 01 04:45:40
  TRACK 292 AUDIO
    TITLE "2:cjc116_0146"
    INDEX 01 04:46:06
  TRACK 293 AUDIO
    TITLE "0:"
    INDEX 01 04:46:73
  TRACK 294 AUDIO
    TITLE "2:cjc116_0147"
    INDEX 01 04:47:16
  TRACK 295 AUDIO
    TITLE "0:"
    INDEX 01 04:48:60
  TRACK 296 AUDIO
    TITLE "2:cjc116_0148"
    INDEX 01 04:49:19
  TRACK 297 AUDIO
    TITLE "0:"
    INDEX 01 04:50:43
  TRACK 298 AUDIO
    TITLE "2:cjc116_0149"
    INDEX 01 04:51:10
  TRACK 299 AUDIO
    TITLE "0:"
    INDEX 01 04:52:15
  TRACK 300 AUDIO
    TITLE "2:cjc116_0150"
    INDEX 01 04:52:31
  TRACK 301 AUDIO
    TITLE "0:"
    INDEX 01 04:54:00
  TRACK 302 AUDIO
    TITLE "2:cjc116_0151"
    INDEX 01 04:54:24
  TRACK 303 AUDIO
    TITLE "0:"
    INDEX 01 04:56:09
  TRACK 304 AUDIO
    TITLE "2:cjc116_0152"
    INDEX 01 04:56:50
  TRACK 305 AUDIO
    TITLE "0:"
    INDEX 01 04:57:40
  TRACK 306 AUDIO
    TITLE "2:cjc116_0153"
    INDEX 01 04:57:55
  TRACK 307 AUDIO
    TITLE "0:"
    INDEX 01 04:59:13
  TRACK 308 AUDIO
    TITLE "2:cjc116_0154"
    INDEX 01 04:59:40
  TRACK 309 AUDIO
    TITLE "0:"
    INDEX 01 05:01:04
  TRACK 310 AUDIO
    TITLE "2:cjc116_0155"
    INDEX 01 05:01:39
  TRACK 311 AUDIO
    TITLE "0:"
    INDEX 01 05:02:56
  TRACK 312 AUDIO
    TITLE "2:cjc116_0156"
    INDEX 01 05:02:72
  TRACK 313 AUDIO
    TITLE "0:"
    INDEX 01 05:05:16
  TRACK 314 AUDIO
    TITLE "2:cjc116_0157"
    INDEX 01 05:05:43
  TRACK 315 AUDIO
    TITLE "0:"
    INDEX 01 05:06:62
  TRACK 316 AUDIO
    TITLE "2:cjc116_0158"
    INDEX 01 05:07:22
  TRACK 317 AUDIO
    TITLE "0:"
    INDEX 01 05:08:28
  TRACK 318 AUDIO
    TITLE "2:cjc116_0159"
    INDEX 01 05:08:45
  TRACK 319 AUDIO
    TITLE "0:"
    INDEX 01 05:10:01
  TRACK 320 AUDIO
    TITLE "2:cjc116_0160"
    INDEX 01 05:10:36
  TRACK 321 AUDIO
    TITLE "0:"
    INDEX 01 05:11:57
  TRACK 322 AUDIO
    TITLE "2:cjc116_0161"
    INDEX 01 05:12:25
  TRACK 323 AUDIO
    TITLE "0:"
    INDEX 01 05:13:31
  TRACK 324 AUDIO
    TITLE "2:cjc116_0162"
    INDEX 01 05:13:43
  TRACK 325 AUDIO
    TITLE "0:"
    INDEX 01 05:15:36
  TRACK 326 AUDIO
    TITLE "2:cjc116_0163"
    INDEX 01 05:15:71
  TRACK 327 AUDIO
    TITLE "0:"
    INDEX 01 05:17:60
  TRACK 328 AUDIO
    TITLE "2:cjc116_0164"
    INDEX 01 05:18:22
  TRACK 329 AUDIO
    TITLE "0:"
    INDEX 01 05:19:16
  TRACK 330 AUDIO
    TITLE "2:cjc116_0165"
    INDEX 01 05:19:35
  TRACK 331 AUDIO
    TITLE "0:"
    INDEX 01 05:21:07
  TRACK 332 AUDIO
    TITLE "2:cjc116_0166"
    INDEX 01 05:21:40
  TRACK 333 AUDIO
    TITLE "0:"
    INDEX 01 05:23:31
  TRACK 334 AUDIO
    TITLE "2:cjc116_0167"
    INDEX 01 05:23:74
  TRACK 335 AUDIO
    TITLE "0:"
    INDEX 01 05:25:01
  TRACK 336 AUDIO
    TITLE "2:cjc116_0168"
    INDEX 01 05:25:12
  TRACK 337 AUDIO
    TITLE "0:"
    INDEX 01 05:26:61
  TRACK 338 AUDIO
    TITLE "2:cjc116_0169"
    INDEX 01 05:27:13
  TRACK 339 AUDIO
    TITLE "0:"
    INDEX 01 05:29:08
  TRACK 340 AUDIO
    TITLE "2:cjc116_0170"
    INDEX 01 05:29:44
  TRACK 341 AUDIO
    TITLE "0:"
    INDEX 01 05:30:27
  TRACK 342 AUDIO
    TITLE "2:cjc116_0171"
    INDEX 01 05:30:59
  TRACK 343 AUDIO
    TITLE "0:"
    INDEX 01 05:32:34
  TRACK 344 AUDIO
    TITLE "2:cjc116_0172"
    INDEX 01 05:32:73
  TRACK 345 AUDIO
    TITLE "0:"
    INDEX 01 05:35:07
  TRACK 346 AUDIO
    TITLE "2:cjc116_0173"
    INDEX 01 05:35:50
  TRACK 347 AUDIO
    TITLE "0:"
    INDEX 01 05:36:42
  TRACK 348 AUDIO
    TITLE "2:cjc116_0174"
    INDEX 01 05:36:61
  TRACK 349 AUDIO
    TITLE "0:"
    INDEX 01 05:38:56
  TRACK 350 AUDIO
    TITLE "2:cjc116_0175"
    INDEX 01 05:39:22
  TRACK 351 AUDIO
    TITLE "0:"
    INDEX 01 05:41:37
  TRACK 352 AUDIO
    TITLE "2:cjc116_0176"
    INDEX 01 05:42:03
  TRACK 353 AUDIO
    TITLE "0:"
    INDEX 01 05:43:04
  TRACK 354 AUDIO
    TITLE "2:cjc116_0177"
    INDEX 01 05:43:20
  TRACK 355 AUDIO
    TITLE "0:"
    INDEX 01 05:44:57
  TRACK 356 AUDIO
    TITLE "2:cjc116_0178"
    INDEX 01 05:45:17
  TRACK 357 AUDIO
    TITLE "0:"
    INDEX 01 05:46:67
  TRACK 358 AUDIO
    TITLE "2:cjc116_0179"
    INDEX 01 05:47:32
  TRACK 359 AUDIO
    TITLE "0:"
    INDEX 01 05:48:23
  TRACK 360 AUDIO
    TITLE "2:cjc116_0180"
    INDEX 01 05:48:37
  TRACK 361 AUDIO
    TITLE "0:"
    INDEX 01 05:49:58
  TRACK 362 AUDIO
    TITLE "2:cjc116_0181"
    INDEX 01 05:50:10
  TRACK 363 AUDIO
    TITLE "0:"
    INDEX 01 05:51:43
  TRACK 364 AUDIO
    TITLE "2:cjc116_0182"
    INDEX 01 05:52:11
  TRACK 365 AUDIO
    TITLE "0:"
    INDEX 01 05:53:03
  TRACK 366 AUDIO
    TITLE "2:cjc116_0183"
    INDEX 01 05:53:22
  TRACK 367 AUDIO
    TITLE "0:"
    INDEX 01 05:55:08
  TRACK 368 AUDIO
    TITLE "2:cjc116_0184"
    INDEX 01 05:55:33
  TRACK 369 AUDIO
    TITLE "0:"
    INDEX 01 05:57:07
  TRACK 370 AUDIO
    TITLE "2:cjc116_0185"
    INDEX 01 05:57:48
  TRACK 371 AUDIO
    TITLE "0:"
    INDEX 01 05:58:69
  TRACK 372 AUDIO
    TITLE "2:cjc116_0186"
    INDEX 01 05:59:03
  TRACK 373 AUDIO
    TITLE "0:"
    INDEX 01 06:00:72
  TRACK 374 AUDIO
    TITLE "2:cjc116_0187"
    INDEX 01 06:01:30
  TRACK 375 AUDIO
    TITLE "0:"
    INDEX 01 06:03:05
  TRACK 376 AUDIO
    TITLE "2:cjc116_0188"
    INDEX 01 06:03:40
  TRACK 377 AUDIO
    TITLE "0:"
    INDEX 01 06:04:52
  TRACK 378 AUDIO
    TITLE "2:cjc116_0189"
    INDEX 01 06:04:65
  TRACK 379 AUDIO
    TITLE "0:"
    INDEX 01 06:06:39
  TRACK 380 AUDIO
    TITLE "2:cjc116_0190"
    INDEX 01 06:06:66
  TRACK 381 AUDIO
    TITLE "0:"
    INDEX 01 06:08:36
  TRACK 382 AUDIO
    TITLE "2:cjc116_0191"
    INDEX 01 06:08:73
  TRACK 383 AUDIO
    TITLE "0:"
    INDEX 01 06:10:09
  TRACK 384 AUDIO
    TITLE "2:cjc116_0192"
    INDEX 01 06:10:23
  TRACK 385 AUDIO
    TITLE "0:"
    INDEX 01 06:11:63
  TRACK 386 AUDIO
    TITLE "2:cjc116_0193"
    INDEX 01 06:12:14
  TRACK 387 AUDIO
    TITLE "0:"
    INDEX 01 06:13:74
  TRACK 388 AUDIO
    TITLE "2:cjc116_0194"
    INDEX 01 06:14:38
  TRACK 389 AUDIO
    TITLE "0:"
    INDEX 01 06:15:40
  TRACK 390 AUDIO
    TITLE "2:cjc116_0195"
    INDEX 01 06:15:53
  TRACK 391 AUDIO
    TITLE "0:"
    INDEX 01 06:17:31
  TRACK 392 AUDIO
    TITLE "2:cjc116_0196"
    INDEX 01 06:18:01
  TRACK 393 AUDIO
    TITLE "0:"
    INDEX 01 06:19:67
  TRACK 394 AUDIO
    TITLE "2:cjc116_0197"
    INDEX 01 06:20:31
  TRACK 395 AUDIO
    TITLE "0:"
    INDEX 01 06:21:52
  TRACK 396 AUDIO
    TITLE "2:cjc116_0198"
    INDEX 01 06:21:66
  TRACK 397 AUDIO
    TITLE "0:"
    INDEX 01 06:24:70
  TRACK 398 AUDIO
    TITLE "2:cjc116_0199"
    INDEX 01 06:25:21
  TRACK 399 AUDIO
    TITLE "0:"
    INDEX 01 06:27:55
